<svg width="26" height="29" viewBox="0 0 26 29" fill="none" xmlns="http://www.w3.org/2000/svg">
<path d="M2.50038 9.93153C2.52695 9.60052 2.67722 9.29165 2.92127 9.06645C3.16532 8.84125 3.48524 8.71624 3.81731 8.71631H22.183C22.515 8.71624 22.835 8.84125 23.079 9.06645C23.3231 9.29165 23.4733 9.60052 23.4999 9.93153L24.6583 24.3556C24.6875 24.7191 24.6411 25.0848 24.522 25.4294C24.403 25.7741 24.2139 26.0904 23.9666 26.3584C23.7193 26.6265 23.4192 26.8404 23.0852 26.9867C22.7511 27.1331 22.3905 27.2087 22.0258 27.2088H3.9745C3.60983 27.2087 3.24913 27.1331 2.91512 26.9867C2.5811 26.8404 2.281 26.6265 2.03371 26.3584C1.78642 26.0904 1.59729 25.7741 1.47824 25.4294C1.35919 25.0848 1.31279 24.7191 1.34196 24.3556L2.49906 9.93153H2.50038Z" stroke="black" stroke-width="1.6" stroke-linecap="round" stroke-linejoin="round"/>
<path d="M18.2837 12.6791V6.07461C18.2837 4.67332 17.727 3.32942 16.7362 2.33857C15.7453 1.34771 14.4014 0.791046 13.0001 0.791046C11.5988 0.791046 10.2549 1.34771 9.26407 2.33857C8.27321 3.32942 7.71655 4.67332 7.71655 6.07461V12.6791" stroke="black" stroke-width="1.55" stroke-linecap="round" stroke-linejoin="round"/>
</svg>
