<svg width="36" height="35" viewBox="0 0 36 36" fill="none" xmlns="http://www.w3.org/2000/svg">
<path d="M28 4H12C11.4696 4 10.7142 4.45736 10.5858 4.58579C10.4574 4.71421 10.0635 4.96957 10.0635 5.5H27.561C28.1142 5.5 28.5624 5.94926 28.561 6.50254L28.5025 29.5025C28.5011 30.0538 28.0538 30.5 27.5025 30.5H12.5C11.9477 30.5 11.5 30.0523 11.5 29.5V20.2H10V30C10 30.5304 10.2107 31.0391 10.5858 31.4142C10.9609 31.7893 11.4696 32 12 32H28C28.5304 32 29.0391 31.7893 29.4142 31.4142C29.7893 31.0391 30 30.5304 30 30V6C30 5.46957 29.7893 4.96086 29.4142 4.58579C29.0391 4.21071 28.5304 4 28 4Z" fill="black"/>
<path d="M13.361 17.9352L13.378 17.9208L13.3936 17.905L16.1927 15.0619L17.0304 14.2111H15.8364H3.82816C3.73987 14.2111 3.65597 14.1763 3.59473 14.1155C3.53361 14.0549 3.5 13.9735 3.5 13.8894C3.5 13.8054 3.53361 13.724 3.59473 13.6634C3.65597 13.6026 3.73987 13.5678 3.82816 13.5678H15.8364H17.0686L16.1849 12.7091L13.4133 10.0164C13.3672 9.95687 13.3438 9.88366 13.3467 9.80943C13.3498 9.72964 13.3831 9.6532 13.4411 9.5956C13.4993 9.53791 13.578 9.50346 13.6618 9.50025C13.7404 9.49723 13.8169 9.52202 13.8778 9.56912L18.2904 13.9549L13.8528 18.3578L13.8391 18.3715L13.8265 18.3861C13.7973 18.4199 13.7612 18.4476 13.7202 18.4672C13.6793 18.4869 13.6345 18.498 13.5888 18.4998C13.543 18.5015 13.4974 18.4938 13.455 18.4774C13.4126 18.4609 13.3743 18.4359 13.3425 18.4044C13.3107 18.3729 13.2861 18.3354 13.2699 18.2944C13.2537 18.2535 13.2463 18.2098 13.248 18.166C13.2497 18.1223 13.2605 18.0793 13.2799 18.0396C13.2992 17.9999 13.3268 17.9643 13.361 17.9352Z" fill="black" stroke="black"/>
</svg>
