<svg width="24" height="24" viewBox="0 0 24 24" fill="none" xmlns="http://www.w3.org/2000/svg">
<path d="M20 6C20 5.73478 19.8946 5.48043 19.7071 5.29289C19.5196 5.10536 19.2652 5 19 5H5C4.73478 5 4.48043 5.10536 4.29289 5.29289C4.10536 5.48043 4 5.73478 4 6C4 6.26522 4.10536 6.51957 4.29289 6.70711C4.48043 6.89464 4.73478 7 5 7H19C19.2652 7 19.5196 6.89464 19.7071 6.70711C19.8946 6.51957 20 6.26522 20 6Z" fill="black"/>
<path d="M20 18C20 17.7348 19.8946 17.4804 19.7071 17.2929C19.5196 17.1054 19.2652 17 19 17H5C4.73478 17 4.48043 17.1054 4.29289 17.2929C4.10536 17.4804 4 17.7348 4 18C4 18.2652 4.10536 18.5196 4.29289 18.7071C4.48043 18.8946 4.73478 19 5 19H19C19.2652 19 19.5196 18.8946 19.7071 18.7071C19.8946 18.5196 20 18.2652 20 18Z" fill="black"/>
<path d="M13.1591 11.8409C13.1169 11.7987 13.0597 11.775 13 11.775H5C4.94033 11.775 4.8831 11.7987 4.8409 11.8409C4.79871 11.8831 4.775 11.9403 4.775 12C4.775 12.0597 4.79871 12.1169 4.8409 12.1591C4.8831 12.2013 4.94033 12.225 5 12.225H13C13.0597 12.225 13.1169 12.2013 13.1591 12.1591C13.2013 12.1169 13.225 12.0597 13.225 12C13.225 11.9403 13.2013 11.8831 13.1591 11.8409Z" fill="black" stroke="black" stroke-width="1.55"/>
</svg>
